<?xml version="1.0" ?><!DOCTYPE svg  PUBLIC '-//W3C//DTD SVG 1.1//EN'  'http://www.w3.org/Graphics/SVG/1.1/DTD/svg11.dtd'><svg enable-background="new 0 0 40 40" height="40px" id="Layer_1" version="1.1" viewBox="0 0 40 40" width="40px" xml:space="preserve" xmlns="http://www.w3.org/2000/svg" xmlns:xlink="http://www.w3.org/1999/xlink"><g><g><g><path d="M20,2c9.925,0,18,8.075,18,18s-8.075,18-18,18c-9.925,0-18-8.075-18-18S10.075,2,20,2 M20,0     C8.953,0,0,8.954,0,20c0,11.047,8.953,20,20,20c11.045,0,20-8.953,20-20C40,8.954,31.045,0,20,0L20,0z" fill="#895a4c"/></g></g><g><path d="M25.221,30.41c-1.947,0.939-3.76,1.275-6.078,1.275c-5.541,0-10.342-3.995-10.342-10.546    c0-6.85,4.902-12.827,12.424-12.827c5.912,0,9.975,4.097,9.975,9.705c0,4.969-2.787,7.991-6.18,7.991    c-1.477,0-2.652-0.838-2.719-2.754h-0.102c-1.107,1.848-2.619,2.754-4.5,2.754c-2.082,0-3.729-1.611-3.729-4.299    c0-4.128,3.158-7.89,7.926-7.89c1.479,0,2.957,0.336,3.83,0.773l-1.076,6.145c-0.402,2.25-0.102,3.291,0.908,3.291    c1.578,0.068,3.424-1.982,3.424-5.843c0-4.634-2.855-8.025-8.059-8.025c-5.307,0-9.842,4.13-9.842,10.746    c0,5.607,3.629,8.898,8.598,8.898c1.814,0,3.627-0.367,4.971-1.109L25.221,30.41z M22.77,16.272    c-0.336-0.102-0.771-0.202-1.342-0.202c-2.553,0-4.568,2.484-4.568,5.339c0,1.377,0.639,2.316,1.881,2.316    c1.578,0,3.088-2.016,3.426-3.995L22.77,16.272z" fill="#895a4c"/></g></g></svg>